<mxfile host="app.diagrams.net" modified="2024-09-14T02:35:03.494Z" agent="Mozilla/5.0 (Macintosh; Intel Mac OS X 10_15_7) AppleWebKit/537.36 (KHTML, like Gecko) Chrome/128.0.0.0 Safari/537.36" version="24.3.1" etag="bT9TjSpHZhIzUd4krhnP" type="github">
  <diagram name="第 1 页" id="0sybnHPKKOvv5c0nKgcH">
    <mxGraphModel>
      <root>
        <mxCell id="0" />
        <mxCell id="1" parent="0" />
      </root>
    </mxGraphModel>
  </diagram>
</mxfile>
